<?xml version="1.0" encoding="UTF-8"?>
<svg width="77px" height="77px" viewBox="0 0 77 77" version="1.1" xmlns="http://www.w3.org/2000/svg" xmlns:xlink="http://www.w3.org/1999/xlink">
    <title>icon-call-recording</title>
    <g id="Design" stroke="none" stroke-width="1" fill="none" fill-rule="evenodd">
        <g id="Voysis-Contact-Center" transform="translate(-1097.000000, -1311.000000)">
            <g id="Group-21" transform="translate(150.000000, 1229.000000)">
                <g id="icon-call-recording" transform="translate(947.000000, 82.000000)">
                    <rect id="Rectangle-Copy-10" x="0" y="0" width="77" height="77"></rect>
                    <path d="M26.6150874,45.5791913 C27.6523592,47.7080869 29.3844511,49.4251319 31.5291524,50.4505669 C31.8510159,50.6020358 32.2294112,50.5734733 32.5245655,50.37543 L35.6746071,48.2841197 C35.957495,48.0934287 36.3190443,48.0603325 36.6322198,48.19646 L42.5290977,50.7135461 C42.943383,50.884917 43.1910775,51.3105928 43.1339057,51.7529399 C42.7472434,54.7523334 40.1788155,56.9993185 37.1362265,57 C27.6721499,57 20,49.3749479 20,39.9689695 C20.0006857,36.9450583 22.2615499,34.3923974 25.2794698,34.0081088 C25.724549,33.951288 26.1528542,34.197462 26.3252836,34.609204 L28.8579171,40.482405 C28.9916621,40.7884531 28.9633169,41.1405931 28.7823161,41.4216162 L26.6780883,44.6024116 C26.4875911,44.8949572 26.4637325,45.2648666 26.6150874,45.5791913 Z" id="Path" stroke="#2C2E30" stroke-width="2" fill="#FFFFFF" stroke-linecap="round" stroke-linejoin="round"></path>
                    <g id="noun-voicemail-1340799" transform="translate(33.293656, 21.000000)">
                        <path d="M21.0562833,15.7100904 C21.0562833,16.3359672 20.5480014,16.8442491 19.9230964,16.8442491 L9.39398293,16.8442491 C9.1354686,16.8442491 8.88861658,16.9462943 8.70687907,17.1290036 L6.15380715,19.6820756 L6.15380715,17.8161075 C6.15380715,17.2796417 5.7184146,16.8442491 5.18194879,16.8442491 L3.07690357,16.8442491 C2.45199865,16.8442491 1.94371672,16.3359672 1.94371672,15.7100904 L1.94371672,3.07787543 C1.94371672,2.45199865 2.45199865,1.94371672 3.07690357,1.94371672 L19.9230964,1.94371672 C20.5480014,1.94371672 21.0562833,2.45199865 21.0562833,3.07787543 L21.0562833,15.7100904 L21.0562833,15.7100904 Z" id="Path" fill="#E9F4E4"></path>
                        <path d="M15.4486605,6.0546776 C13.6060171,6.0546776 12.1074115,7.55328319 12.1074115,9.39592665 C12.1074115,9.8964337 12.2259782,10.3668131 12.4232654,10.793459 L10.5767346,10.793459 C10.7740218,10.3668131 10.8925885,9.8964337 10.8925885,9.39592665 C10.8925885,7.55328319 9.39398293,6.0546776 7.55133947,6.0546776 C5.70966788,6.0546776 4.21106228,7.55328319 4.21106228,9.39592665 C4.21106228,11.2385701 5.70966788,12.7371757 7.55133947,12.7371757 L15.4476887,12.7371757 C17.2903321,12.7371757 18.7889377,11.2385701 18.7889377,9.39592665 C18.7889377,7.55328319 17.291304,6.0546776 15.4486605,6.0546776 Z M6.15672272,9.39592665 C6.15672272,8.62621482 6.78357137,7.99839432 7.55328319,7.99839432 C8.32396687,7.99839432 8.95081552,8.62524296 8.95081552,9.39592665 C8.95081552,10.1666103 8.32396687,10.793459 7.55328319,10.793459 C6.78357137,10.7924871 6.15672272,10.1656385 6.15672272,9.39592665 Z M15.4486605,10.7924871 C14.6779768,10.7924871 14.0511282,10.1656385 14.0511282,9.39495479 C14.0511282,8.62427111 14.6779768,7.99742246 15.4486605,7.99742246 C16.2193442,7.99742246 16.8461929,8.62621482 16.8461929,9.39592665 C16.8461929,10.1656385 16.2193442,10.7924871 15.4486605,10.7924871 Z M19.9230964,0 L3.07690357,0 C1.38003887,0 0,1.38101073 0,3.07787543 L0,15.7100904 C0,17.4069551 1.38003887,18.7879659 3.07690357,18.7879659 L4.21009043,18.7879659 L4.21009043,22.0281416 C4.21009043,22.4207724 4.44722387,22.7764726 4.80972703,22.9261388 C4.93023747,22.9766754 5.05657906,23 5.18194879,23 C5.43463196,23 5.6834277,22.9008704 5.86905265,22.7152455 L9.79633229,18.7879659 L19.9230964,18.7879659 C21.6199611,18.7879659 23,17.4069551 23,15.7100904 L23,3.07787543 C23,1.38101073 21.6199611,0 19.9230964,0 Z M21.0562833,15.7100904 C21.0562833,16.3359672 20.5480014,16.8442491 19.9230964,16.8442491 L9.39398293,16.8442491 C9.1354686,16.8442491 8.88861658,16.9462943 8.70687907,17.1290036 L6.15380715,19.6820756 L6.15380715,17.8161075 C6.15380715,17.2796417 5.7184146,16.8442491 5.18194879,16.8442491 L3.07690357,16.8442491 C2.45199865,16.8442491 1.94371672,16.3359672 1.94371672,15.7100904 L1.94371672,3.07787543 C1.94371672,2.45199865 2.45199865,1.94371672 3.07690357,1.94371672 L19.9230964,1.94371672 C20.5480014,1.94371672 21.0562833,2.45199865 21.0562833,3.07787543 L21.0562833,15.7100904 L21.0562833,15.7100904 Z" id="Shape" fill="#2C2E30" fill-rule="nonzero"></path>
                    </g>
                </g>
            </g>
        </g>
    </g>
</svg>