<?xml version="1.0" encoding="UTF-8"?>
<svg width="77px" height="77px" viewBox="0 0 77 77" version="1.1" xmlns="http://www.w3.org/2000/svg" xmlns:xlink="http://www.w3.org/1999/xlink">
    <title>icon-contact-center-supervisor</title>
    <g id="Design" stroke="none" stroke-width="1" fill="none" fill-rule="evenodd">
        <g id="Voysis-Contact-Center" transform="translate(-682.000000, -1311.000000)">
            <g id="Group-21" transform="translate(150.000000, 1229.000000)">
                <g id="icon-contact-center-supervisor" transform="translate(532.000000, 82.000000)">
                    <rect id="Rectangle-Copy-12" x="0" y="0" width="77" height="77"></rect>
                    <polygon id="Fill-1" fill="#FFFFFF" points="21.0632 42.956348 23.6093818 61.0467701 52.8359273 61.0467701 55.0635636 42.956348"></polygon>
                    <g id="Group-15" transform="translate(14.000000, 14.000000)">
                        <path d="M26.9918182,37.7822878 C26.9918182,39.4350039 25.6521818,40.7746311 23.9994545,40.7746311 C22.3478182,40.7746311 21.0081818,39.4350039 21.0081818,37.7822878 C21.0081818,36.1295718 22.3478182,34.7910355 23.9994545,34.7910355 C25.6521818,34.7910355 26.9918182,36.1295718 26.9918182,37.7822878" id="Fill-2" fill="#FFFBE4"></path>
                        <path d="M36.786,22.696318 L31.4001818,21.7690516 L28.1547273,18.7505267 C26.8510909,19.9832456 25.3598182,20.7283314 23.9863636,20.7283314 C22.6412727,20.7283314 21.1914545,20.0497906 19.914,18.8967075 L16.8430909,22.3145024 L11.4910909,23.3039502 L10.5016364,26.9857433 L10.3554545,26.9857433 L10.3554545,28.0700995 L38.3885455,28.0700995 L38.3885455,26.9857433 L36.786,22.696318 Z" id="Fill-4" fill="#FFFBE4"></path>
                        <path d="M28.7450182,8.68564987 C28.7450182,12.6761681 26.6210182,15.9106915 23.9995636,15.9106915 C21.3792,15.9106915 19.2552,12.6761681 19.2552,8.68564987 C19.2552,3.27477767 21.3792,1.46060822 23.9995636,1.46060822 C26.6210182,1.46060822 28.7450182,3.18314193 28.7450182,8.68564987" id="Fill-6" fill="#FFFBE4"></path>
                        <path d="M8.76436364,29.6226708 C8.62036364,29.6226708 8.484,29.6837612 8.388,29.7917605 C8.29309091,29.8997598 8.24836364,30.0426679 8.26581818,30.185576 L10.1116364,45.4996534 C10.1421818,45.7516517 10.356,45.9414686 10.6101818,45.9414686 L37.3887273,45.9414686 C37.6429091,45.9414686 37.8567273,45.7516517 37.8872727,45.4996534 L39.7341818,30.185576 C39.7516364,30.0426679 39.7069091,29.8997598 39.6109091,29.7917605 C39.516,29.6837612 39.3785455,29.6226708 39.2345455,29.6226708 L8.76436364,29.6226708 Z M1.02872727,48 C0.461454545,48 0,47.5374577 0,46.9701888 C0,46.4040109 0.461454545,45.9414686 1.02872727,45.9414686 L7.52509091,45.9414686 C7.66909091,45.9414686 7.80654545,45.8803781 7.90145455,45.7723788 C7.99636364,45.6654705 8.04218182,45.5214714 8.02472727,45.3796542 L6.13309091,29.6859431 C6.12763636,29.6433979 6.12545455,29.6030345 6.12545455,29.5615803 C6.12545455,28.4608605 7.03090909,27.5652302 8.14472727,27.5652302 L8.74909091,27.5652302 C9.012,27.5652302 9.23018182,27.3634134 9.25090909,27.101597 C9.61636364,22.4216289 11.6443636,21.4398175 13.2796364,21.4398175 C16.1596364,21.4398175 17.3978182,20.4765513 18.5629091,18.8140172 C18.756,18.5402009 19.0723636,18.3754747 19.4083636,18.3754747 C19.6189091,18.3754747 19.8207273,18.4409288 19.9941818,18.5631098 C20.2210909,18.7212905 20.3716364,18.9569253 20.4185455,19.2274689 C20.4665455,19.4980125 20.4054545,19.7707379 20.2472727,19.9954637 C18.4810909,22.5154465 16.5272727,23.497258 13.2796364,23.497258 C12.1985455,23.497258 11.5396364,24.6808863 11.3192727,27.0154158 C11.3061818,27.1561421 11.3530909,27.2957775 11.448,27.4005041 C11.5429091,27.5052306 11.6781818,27.5652302 11.82,27.5652302 L36.18,27.5652302 C36.3207273,27.5652302 36.456,27.5052306 36.5509091,27.4005041 C36.6469091,27.2957775 36.6927273,27.1561421 36.6796364,27.0154158 C36.4058182,24.107072 35.4632727,23.497258 34.7203636,23.497258 C31.4727273,23.497258 29.5178182,22.5154465 27.7505455,19.9965546 C27.5934545,19.7718288 27.5334545,19.4980125 27.5803636,19.2274689 C27.6283636,18.9569253 27.7789091,18.7212905 28.0025455,18.5642007 C28.1781818,18.4409288 28.3810909,18.3754747 28.5916364,18.3754747 C28.9276364,18.3754747 29.2429091,18.5402009 29.436,18.8151081 C30.6010909,20.4765513 31.8392727,21.4398175 34.7203636,21.4398175 C36.3556364,21.4398175 38.3825455,22.4216289 38.7490909,27.101597 C38.7687273,27.3634134 38.9869091,27.5652302 39.2498182,27.5652302 L39.8541818,27.5652302 C40.968,27.5652302 41.8745455,28.4608605 41.8745455,29.5615803 C41.8745455,29.6041254 41.8712727,29.6477615 41.8658182,29.6903067 L39.9752727,45.3796542 C39.9578182,45.5214714 40.0025455,45.6654705 40.0974545,45.7723788 C40.1934545,45.8803781 40.3298182,45.9414686 40.4738182,45.9414686 L46.9712727,45.9414686 C47.5385455,45.9414686 48,46.4040109 48,46.9701888 C48,47.5374577 47.5385455,48 46.9712727,48 L1.02872727,48 Z" id="Fill-8" fill="#2C2E30"></path>
                        <path d="M24,35.7483017 C22.8785455,35.7483017 21.9654545,36.6602955 21.9654545,37.7828333 C21.9654545,38.9042802 22.8785455,39.816274 24,39.816274 C25.1214545,39.816274 26.0345455,38.9042802 26.0345455,37.7828333 C26.0345455,36.6602955 25.1214545,35.7483017 24,35.7483017 M24,41.8737145 C21.744,41.8737145 19.908,40.0388179 19.908,37.7828333 C19.908,35.5257578 21.744,33.6908612 24,33.6908612 C26.256,33.6908612 28.092,35.5257578 28.092,37.7828333 C28.092,40.0388179 26.256,41.8737145 24,41.8737145" id="Fill-11" fill="#2C2E30"></path>
                        <path d="M24,2.05744052 C21.2956364,2.05744052 19.9243636,3.91960964 19.9243636,7.5926755 C19.9243636,12.0719177 22.3581818,15.3140774 24,15.3140774 C25.6407273,15.3140774 28.0756364,12.0719177 28.0756364,7.5926755 C28.0756364,3.91960964 26.7043636,2.05744052 24,2.05744052 M24,17.3715179 C20.7327273,17.3715179 17.8658182,12.8017309 17.8658182,7.5926755 C17.8658182,2.76761749 20.1021818,0 24,0 C27.84,0 30.1330909,2.8385261 30.1330909,7.5926755 C30.1330909,12.8017309 27.2672727,17.3715179 24,17.3715179" id="Fill-13" fill="#2C2E30"></path>
                    </g>
                </g>
            </g>
        </g>
    </g>
</svg>