<?xml version="1.0" encoding="UTF-8"?>
<svg width="110px" height="110px" viewBox="0 0 110 110" version="1.1" xmlns="http://www.w3.org/2000/svg" xmlns:xlink="http://www.w3.org/1999/xlink">
    <title>icon-contact-center</title>
    <g id="Design" stroke="none" stroke-width="1" fill="none" fill-rule="evenodd">
        <g id="Voysis-Homepage" transform="translate(-190.000000, -561.000000)">
            <g id="Group-5" transform="translate(150.000000, 561.000000)">
                <g id="icon-contact-center" transform="translate(40.000000, 0.000000)">
                    <rect id="Rectangle-Copy-2" x="0" y="0" width="110" height="110"></rect>
                    <path d="M43.78232,68.4516238 C46.2631211,71.3042211 49.8567201,72.9416794 53.6368651,72.9416794 C57.41701,72.9416794 61.0119046,71.3042211 63.4914102,68.4516238 L69.0774229,72.9416794 L76.1221207,73.8536815 L80.0888116,78.7531017 L80.6562219,81.9101316 L60.4146987,80.5563785 L26.5708718,80.5563785 L29.9714477,73.4494987 L38.18983,72.2758143 L43.78232,68.4516238 Z" id="Fill-1" fill="#FFFBE4"></path>
                    <polygon id="Fill-3" fill="#FFFBE4" points="65.3939191 45.5431421 64.6917811 56.2306664 71.8167973 56.2306664 73.868802 51.3727008 72.6264582 46.4072123"></polygon>
                    <polygon id="Fill-5" fill="#FFFBE4" points="41.5898877 45.5431421 42.2920257 56.2306664 35.1670095 56.2306664 33.1150048 51.3727008 34.3573485 46.4072123"></polygon>
                    <path d="M64.1035139,48.5256739 C64.1035139,37.9391953 58.3374326,35.7174857 53.5001943,35.7174857 C48.6629561,35.7174857 42.8968748,37.9391953 42.8968748,48.5256739 C42.8968748,59.0357205 49.2795938,66.0078727 53.5001943,66.0078727 C57.7207948,66.0078727 64.1035139,59.0357205 64.1035139,48.5256739" id="Fill-7" fill="#FFFFFF"></path>
                    <g id="Group-11" transform="translate(25.000000, 67.827602)" fill="#2C2E30">
                        <path d="M56.9845841,13.8510315 C56.9806977,13.7992132 56.9819931,13.7486903 56.987175,13.6916902 C55.9624681,7.74813125 53.2277573,4.20116864 49.6652492,4.20116864 L48.8814975,4.20375955 C45.666172,4.20116864 43.1257798,4.19857772 40.5555922,0.522069368 C40.3288871,0.195614081 39.951909,0.00129545749 39.5503172,0.00129545749 C39.2989984,0.00129545749 39.0580433,0.0764319919 38.853361,0.218932316 C38.3014961,0.60368319 38.1654731,1.36800311 38.550224,1.919868 C41.5984355,6.28555974 45.0249205,6.64958329 48.2726324,6.64958329 C48.5200648,6.64958329 48.7636108,6.64828784 49.0071568,6.64699238 L49.6626583,6.64440146 C51.4775943,6.64440146 53.0839616,8.58370133 54.0711002,11.9648454 C54.1242139,12.144914 54.0892366,12.340528 53.9765318,12.4895057 C53.8625315,12.6397787 53.6863493,12.7291653 53.498508,12.7291653 L3.50162159,12.7291653 C3.31378026,12.7291653 3.13630258,12.6397787 3.02359778,12.4895057 C2.91089298,12.340528 2.87591563,12.144914 2.92773393,11.9648454 C3.91746345,8.58370133 5.52512619,6.64440146 7.34006214,6.64440146 L7.99815454,6.64699238 C8.2339278,6.64828784 8.47617835,6.64958329 8.71972436,6.64958329 L8.71972436,6.64958329 C12.1086412,6.64958329 15.6737402,6.28426428 18.7232471,1.919868 C19.107998,1.36800311 18.9719749,0.60368319 18.4214055,0.218932316 C18.2154278,0.0764319919 17.9744727,0 17.7231539,0 C17.3215621,0 16.9458794,0.195614081 16.7178789,0.522069368 C14.3342371,3.93300894 11.748504,4.20375955 8.61479231,4.20375955 L7.33747122,4.20116864 C3.77625858,4.20116864 1.04154782,7.74813125 0.0155454899,13.6903948 C0.0194318623,13.7422131 0.0220227773,13.7940314 0.0168409474,13.8471451 C0.0142500324,13.8834179 0.00777274494,13.9183953 0,13.9546681 C0.0116591174,13.9987136 0.0207273198,14.0440546 0.0259091498,14.0893957 C0.0375682672,14.1813731 0.0492273846,14.2565097 0.0712501619,14.322578 C0.0932729393,14.3886463 0.123068462,14.4547147 0.167114016,14.535033 C0.215045943,14.6179423 0.25261421,14.6749424 0.292773393,14.7228744 C0.33552349,14.7733972 0.387341789,14.8226246 0.462478324,14.8822156 C0.535023943,14.9405112 0.590728615,14.979375 0.647728745,15.0091705 C0.704728874,15.038966 0.773388121,15.0648751 0.880911093,15.0959661 C0.93402485,15.1115116 0.983252235,15.1322389 1.04543419,15.160739 C1.09984341,15.1685117 1.15554808,15.1723981 1.20866184,15.1723981 L55.7733313,15.1723981 L55.7901723,15.1723981 C55.8471724,15.1723981 55.9041725,15.1685117 55.9585817,15.1620345 C56.0129909,15.1361253 56.0674002,15.1115116 56.1256957,15.0946707 C56.2306278,15.0648751 56.2954007,15.0402615 56.3498099,15.0117614 C56.4094009,14.979375 56.4676965,14.9392158 56.5402421,14.8809202 C56.6127878,14.8226246 56.6646061,14.7733972 56.7060607,14.7241698 C56.7488108,14.673647 56.7876745,14.6153514 56.834311,14.5324421 C56.8783565,14.4534192 56.9081521,14.3899418 56.9288794,14.3251689 C56.9496067,14.2642824 56.9625613,14.1943277 56.9755159,14.0881002 C56.9806977,14.0440546 56.9884704,14.0026 57.0001295,13.9559635 C56.9936523,13.9248726 56.987175,13.8898952 56.9845841,13.8510315" id="Fill-9"></path>
                    </g>
                    <path d="M72.2906757,52.6812425 C72.2906757,54.0129728 71.2063777,55.0972707 69.8746474,55.0972707 L66.4624124,55.0972707 C66.2810484,55.0972707 66.1087525,55.0143614 65.9947523,54.8718611 C65.8820475,54.7293607 65.8392974,54.5441103 65.880752,54.3666327 C66.3237985,52.4312192 66.5479126,50.4660102 66.5479126,48.5254148 C66.5479126,48.0953229 66.5297762,47.6665265 66.5116398,47.2519801 C66.5038671,47.0887525 66.5634581,46.9307067 66.6761629,46.81282 C66.7888677,46.6949334 66.9456181,46.6288651 67.1075502,46.6288651 L69.8746474,46.6288651 C71.2063777,46.6288651 72.2906757,47.7118675 72.2906757,49.0435978 L72.2906757,52.6812425 Z M39.8964657,46.6288651 C40.0596933,46.6288651 40.2151482,46.6949334 40.327853,46.81282 C40.4405578,46.9307067 40.5001489,47.0887525 40.4923761,47.2519801 L40.4858988,47.4022532 C40.4690579,47.7844131 40.4522169,48.1458458 40.4522169,48.5254148 C40.4522169,50.4789647 40.6750356,52.4454692 41.1141957,54.3666327 C41.1543549,54.5441103 41.1129003,54.7293607 40.9989,54.8718611 C40.8861952,55.0143614 40.7138993,55.0972707 40.5325353,55.0972707 L37.1267776,55.0972707 C35.7937518,55.0972707 34.7094539,54.0129728 34.7094539,52.6812425 L34.7094539,49.0435978 C34.7094539,47.7118675 35.7937518,46.6288651 37.1267776,46.6288651 L39.8964657,46.6288651 Z M71.4369692,44.468042 C71.2828097,44.4149282 71.1649231,44.3035189 71.0962639,44.1674958 L71.0962639,43.5884263 C71.0962639,37.8314133 69.5961241,33.4139032 66.6385946,30.4563738 C63.6797697,27.4988443 59.2596688,26 53.5000648,26 C47.7404608,26 43.3203598,27.4988443 40.3628304,30.4563738 C37.4040055,33.4139032 35.9038657,37.8314133 35.9025702,43.5702899 L35.9025702,44.1700868 C35.8352064,44.3061098 35.7173198,44.4162237 35.5644558,44.468042 C33.5914741,45.1442708 32.2649256,46.9838204 32.2649256,49.0435978 L32.2649256,52.6812425 C32.2649256,55.3602485 34.446476,57.5405035 37.1267776,57.5405035 L39.3756918,57.5405035 L40.7644222,57.5405035 L42.0274932,57.5405035 C42.0715388,57.5910263 42.1091071,57.6493219 42.1337208,57.7127993 C44.5432717,64.0359274 49.2172823,68.4508465 53.5000648,68.4508465 C54.225521,68.4508465 54.970409,68.3303689 55.7165925,68.0907093 C56.357844,67.8847316 56.7115039,67.1942527 56.5042307,66.5530013 C56.3422985,66.0464774 55.8746384,65.7070675 55.3409099,65.7070675 C55.213955,65.7070675 55.0857047,65.7264994 54.9652272,65.7653631 C54.4625897,65.9259998 53.9690204,66.0076137 53.5000648,66.0076137 C49.2794643,66.0076137 42.8967452,59.0354614 42.8967452,48.5254148 C42.8967452,37.9389362 48.6628265,35.7172266 53.5000648,35.7172266 C57.1066184,35.7172266 59.8413292,36.9012748 61.6290605,39.2369846 C61.8622429,39.5414171 62.2146073,39.7163039 62.5980627,39.7163039 C62.8675179,39.7163039 63.1240185,39.6295082 63.3416553,39.4623942 C63.6007468,39.2641892 63.7665654,38.9778931 63.8106109,38.6540288 C63.853361,38.3314598 63.7678608,38.0101864 63.5683604,37.7510949 C61.3285144,34.8220655 57.8476201,33.2739938 53.5000648,33.2739938 C46.7455494,33.2739938 42.2736302,36.9790022 40.9095134,43.7076084 C40.8538088,43.9861318 40.6089673,44.1856322 40.3252621,44.1856322 L38.9455999,44.1856322 C38.6165537,44.1856322 38.348394,43.918768 38.348394,43.5884263 C38.348394,38.4130737 39.5687149,34.6782697 42.0767206,32.170264 C44.5860218,29.6622583 48.3221212,28.4432328 53.5000648,28.4432328 C58.6780084,28.4432328 62.4154032,29.6622583 64.9234089,32.170264 C67.4327101,34.6782697 68.6517356,38.4130737 68.6517356,43.5884263 C68.6517356,43.918768 68.3848713,44.1856322 68.0545297,44.1856322 L67.2979825,44.1856322 L65.1488185,44.1726777 L65.1436367,44.1726777 L65.1358639,44.1726777 L65.1203185,44.1726777 L65.1203185,44.1726777 C65.0840456,44.1739731 65.0451819,44.176564 64.9959545,44.1843368 C64.3274985,44.2672461 63.8494747,44.8774065 63.9323839,45.5458626 C64.0463842,46.4772965 64.1033843,47.4799806 64.1033843,48.5254148 C64.1033843,51.0671024 63.7056789,53.5595626 62.9206316,55.9367271 C62.8182905,56.245046 62.8416087,56.5766831 62.9879954,56.8668656 C63.1356776,57.1583435 63.3869963,57.3759804 63.700497,57.4783215 C63.8054291,57.5145944 63.9142475,57.5314353 64.0088159,57.5379126 L64.0088159,57.5405035 L64.0386115,57.5405035 L64.0489751,57.541799 L64.0606342,57.5405035 L64.5192262,57.5405035 L64.920818,57.5405035 L68.0545297,57.5405035 C68.3848713,57.5405035 68.6517356,57.8073677 68.6517356,58.1364139 C68.6517356,59.4694397 67.5674377,60.5524422 66.2357074,60.5524422 L58.9578272,60.5524422 C58.628781,60.5524422 58.3606213,60.2855779 58.3606213,59.9552363 L58.3606213,58.1364139 C58.3606213,57.4627761 57.8126428,56.9147975 57.1390049,56.9147975 C56.465367,56.9147975 55.9173884,57.4627761 55.9173884,58.1364139 L55.9173884,61.7740586 C55.9173884,62.4476965 56.465367,62.995675 57.1390049,62.995675 L66.2357074,62.995675 C68.9160089,62.995675 71.0962639,60.81542 71.0962639,58.1364139 L71.0962639,57.8021859 C71.0962639,57.5495717 71.2556051,57.3241621 71.4926738,57.2399574 C73.4319737,56.5481831 74.7352039,54.7164062 74.7352039,52.6812425 L74.7352039,49.0435978 C74.7352039,46.9838204 73.4099509,45.1442708 71.4369692,44.468042 L71.4369692,44.468042 Z" id="Fill-12" fill="#2C2E30"></path>
                </g>
            </g>
        </g>
    </g>
</svg>