<?xml version="1.0" encoding="UTF-8"?>
<svg width="77px" height="77px" viewBox="0 0 77 77" version="1.1" xmlns="http://www.w3.org/2000/svg" xmlns:xlink="http://www.w3.org/1999/xlink">
    <title>icon-boutique-service</title>
    <g id="Design" stroke="none" stroke-width="1" fill="none" fill-rule="evenodd">
        <g id="Voysis-Homepage" transform="translate(-540.000000, -996.000000)">
            <g id="icon-boutique-service" transform="translate(540.000000, 996.000000)">
                <rect id="Rectangle-Copy-4" x="0" y="0" width="77" height="77"></rect>
                <path d="M29.27197,19.3752318 L37.6074501,19.3752318 C44.1684481,19.3752318 49.4871878,24.6434516 49.4871878,31.1421301 C49.4871878,37.6408086 44.1684481,42.9090284 37.6074501,42.9090284 L35.4204656,42.9090284 C34.9752412,42.9098381 34.5671293,43.1549401 34.3605456,43.5455905 C32.9457201,46.2106006 30.3462781,47.9825235 28.2887862,49.0703796 C28.749297,47.345836 28.8423955,45.5452328 28.5621592,43.7831137 C28.4832736,43.2662152 28.0724235,42.8611962 27.5501993,42.7855163 C21.4015061,41.8789312 16.9981537,36.4304013 17.4511615,30.2893759 C17.9041693,24.1483506 23.0603342,19.3916692 29.276766,19.3799823 L29.27197,19.3752318 Z" id="Path" fill="#E9F4E4"></path>
                <path d="M26.2840505,44.9707296 C26.3901678,46.2347183 26.2584433,47.5072364 25.895573,48.7235958 C25.6420151,49.5747565 25.9226158,50.4938004 26.6098788,51.0631424 C27.2971418,51.6324845 28.259994,51.7435411 29.0609452,51.3458517 C31.3054818,50.2247423 34.2886053,48.2770522 36.1015003,45.2842602 L37.588266,45.2842602 C45.4736479,45.2842602 51.866013,38.9526129 51.866013,31.1421301 C51.866013,23.3316473 45.4736479,17 37.588266,17 L29.276766,17 C21.9736553,17.0009335 15.8485606,22.4604932 15.0801194,29.65408 C14.3116783,36.8476667 19.1476454,43.455983 26.2888465,44.9707296 L26.2840505,44.9707296 Z M29.27197,19.3752318 L37.6074501,19.3752318 C44.1684481,19.3752318 49.4871878,24.6434516 49.4871878,31.1421301 C49.4871878,37.6408086 44.1684481,42.9090284 37.6074501,42.9090284 L35.4204656,42.9090284 C34.9752412,42.9098381 34.5671293,43.1549401 34.3605456,43.5455905 C32.9457201,46.2106006 30.3462781,47.9825235 28.2887862,49.0703796 C28.749297,47.345836 28.8423955,45.5452328 28.5621592,43.7831137 C28.4832736,43.2662152 28.0724235,42.8611962 27.5501993,42.7855163 C21.4015061,41.8789312 16.9981537,36.4304013 17.4511615,30.2893759 C17.9041693,24.1483506 23.0603342,19.3916692 29.276766,19.3799823 L29.27197,19.3752318 Z M62,46.286608 C61.9722898,50.3596722 59.193868,53.9096754 55.2184299,54.9514536 C55.2036114,55.5362098 55.2812877,56.1196602 55.4486388,56.6806223 C55.6527112,57.3697407 55.4261396,58.1131838 54.8711991,58.575359 C54.3162586,59.0375343 53.5379346,59.1310059 52.8875649,58.8135804 C51.1747356,58.0032274 49.7014206,56.7696759 48.6095164,55.2317309 L47.971646,55.2317309 C44.0835708,55.2348637 40.6303868,52.7714982 39.401161,49.1178843 C39.2465552,48.7106783 39.3291088,48.252332 39.6163378,47.9232012 C39.9035667,47.5940704 40.3494932,47.4468401 40.7786486,47.5394443 C41.2078039,47.6320486 41.5514918,47.9496639 41.6744737,48.367311 C42.5760114,51.0532495 45.1140155,52.8644806 47.971646,52.8612496 L49.280959,52.8612496 C49.7268651,52.8593651 50.1369932,53.1027386 50.3456751,53.4930612 C50.9577549,54.5567512 51.8323486,55.4491896 52.8875649,56.0868143 C52.7935018,55.3223076 52.806413,54.5486 52.9259331,53.78759 C53.0048187,53.2706915 53.4156688,52.8656725 53.937893,52.7899926 C57.1982533,52.3128297 59.6113613,49.5384115 59.605345,46.2739635 C59.5993287,43.0095155 57.1760103,40.2438422 53.9139129,39.7784729 C53.4855498,39.7190717 53.12172,39.4378244 52.9594747,39.0406741 C52.7972294,38.6435239 52.8612176,38.1908073 53.1273354,37.8530583 C53.3934532,37.5153092 53.8212711,37.3438399 54.2496342,37.4032411 C58.6985287,38.0530186 61.9958149,41.8323244 62,46.286608 Z M25.1473941,26.6054374 C25.1473941,25.9495352 25.6842067,25.4178215 26.3463987,25.4178215 L40.5378174,25.4178215 C41.2000093,25.4178215 41.736822,25.9495352 41.736822,26.6054374 C41.736822,27.2613395 41.2000093,27.7930533 40.5378174,27.7930533 L26.3463987,27.7930533 C25.6842067,27.7930533 25.1473941,27.2613395 25.1473941,26.6054374 Z M25.1473941,31.1183778 C25.1473941,30.4624756 25.6842067,29.9307619 26.3463987,29.9307619 L40.5378174,29.9307619 C41.2000093,29.9307619 41.736822,30.4624756 41.736822,31.1183778 C41.736822,31.7742799 41.2000093,32.3059937 40.5378174,32.3059937 L26.3463987,32.3059937 C25.6934596,32.306123 25.1604529,31.7887379 25.1473941,31.1421301 L25.1473941,31.1183778 Z M25.1473941,35.6313182 C25.1473941,34.975416 25.6842067,34.4437023 26.3463987,34.4437023 L36.0631321,34.4437023 C36.7253241,34.4437023 37.2621367,34.975416 37.2621367,35.6313182 C37.2621367,36.2872203 36.7253241,36.8189341 36.0631321,36.8189341 L26.3463987,36.8189341 C25.6934596,36.8190634 25.1604529,36.3016783 25.1473941,35.6550705 L25.1473941,35.6313182 Z" id="Shape" fill="#2C2E30" fill-rule="nonzero"></path>
            </g>
        </g>
    </g>
</svg>